<?xml version="1.0" encoding="UTF-8" standalone="no"?>
<svg width="56px" height="56px" viewBox="0 0 56 56" version="1.1" xmlns="http://www.w3.org/2000/svg" xmlns:xlink="http://www.w3.org/1999/xlink">
    <!-- Generator: sketchtool 3.6.1 (26313) - http://www.bohemiancoding.com/sketch -->
    <title>facebook-icon</title>
    <desc>Created with sketchtool.</desc>
    <defs></defs>
    <g id="Cocnepts" stroke="none" stroke-width="1" fill="none" fill-rule="evenodd">
        <g id="Facebook" transform="translate(-1301.000000, -113.000000)" fill="#FFFFFF">
            <g id="Group-2" transform="translate(1258.000000, 113.000000)">
                <g id="facebook-icon" transform="translate(43.000000, 0.000000)">
                    <path d="M29.4657496,55.1019674 L3.04004004,55.1019674 C1.36059901,55.1019674 0,53.7403876 0,52.060865 L0,3.04110239 C0,1.36116687 1.36059901,0 3.04004004,0 L52.0389395,0 C53.7177614,0 55.0787732,1.36116687 55.0787732,3.04110239 L55.0787732,52.060865 C55.0787732,53.7403876 53.7177614,55.1019674 52.0389395,55.1019674 L38.0499262,55.1019674 L38.0499262,33.9061238 L45.2093227,33.9061238 L46.2812097,25.5900611 L38.0499262,25.5900611 L38.0499262,20.2806225 C38.0499262,17.8729283 38.7181531,16.2322195 42.169489,16.2322195 L46.5713663,16.2301549 L46.5713663,8.79235759 C45.8096537,8.69119397 43.1970064,8.46471132 40.1571728,8.46471132 C33.8106687,8.46471132 29.4657496,12.3401039 29.4657496,19.4572745 L29.4657496,25.5900611 L22.2879862,25.5900611 L22.2879862,33.9061238 L29.4657496,33.9061238 L29.4657496,55.1019674 Z" id="Combined-Shape"></path>
                </g>
            </g>
        </g>
    </g>
</svg>